<svg xmlns="http://www.w3.org/2000/svg" xmlns:xlink="http://www.w3.org/1999/xlink" contentStyleType="text/css" height="566px" preserveAspectRatio="none" style="width:1149px;height:566px;background:#FFFFFF;" version="1.1" viewBox="0 0 1149 566" width="1149px" zoomAndPan="magnify"><defs/><g><!--entity user--><g id="elem_user"><ellipse cx="637.1172" cy="14" fill="#F1F1F1" rx="8" ry="8" style="stroke:#181818;stroke-width:0.5;"/><path d="M637.1172,22 L637.1172,49 M624.1172,30 L650.1172,30 M637.1172,49 L624.1172,64 M637.1172,49 L650.1172,64 " fill="none" style="stroke:#181818;stroke-width:0.5;"/><text fill="#000000" font-family="sans-serif" font-size="14" lengthAdjust="spacing" textLength="27.2344" x="623.5" y="80.6074">user</text></g><!--entity appCtxInfra--><g id="elem_appCtxInfra"><rect fill="#ADD8E6" height="48.6211" rx="2.5" ry="2.5" style="stroke:#181818;stroke-width:0.5;" width="117.8066" x="131" y="255.5"/><rect fill="#ADD8E6" height="10" style="stroke:#181818;stroke-width:0.5;" width="15" x="228.8066" y="260.5"/><rect fill="#ADD8E6" height="2" style="stroke:#181818;stroke-width:0.5;" width="4" x="226.8066" y="262.5"/><rect fill="#ADD8E6" height="2" style="stroke:#181818;stroke-width:0.5;" width="4" x="226.8066" y="266.5"/><text fill="#000000" font-family="sans-serif" font-size="14" lengthAdjust="spacing" textLength="77.8066" x="146" y="290.6074">app-ctx-infra</text></g><!--entity appHttpClient--><g id="elem_appHttpClient"><rect fill="#98FB98" height="48.6211" rx="2.5" ry="2.5" style="stroke:#181818;stroke-width:0.5;" width="128.7168" x="915.5" y="145.5"/><rect fill="#98FB98" height="10" style="stroke:#181818;stroke-width:0.5;" width="15" x="1024.2168" y="150.5"/><rect fill="#98FB98" height="2" style="stroke:#181818;stroke-width:0.5;" width="4" x="1022.2168" y="152.5"/><rect fill="#98FB98" height="2" style="stroke:#181818;stroke-width:0.5;" width="4" x="1022.2168" y="156.5"/><text fill="#000000" font-family="sans-serif" font-size="14" lengthAdjust="spacing" textLength="88.7168" x="930.5" y="180.6074">app-http-client</text></g><!--entity appHttpServer--><g id="elem_appHttpServer"><rect fill="#98FB98" height="48.6211" rx="2.5" ry="2.5" style="stroke:#181818;stroke-width:0.5;" width="134.9307" x="745.5" y="145.5"/><rect fill="#98FB98" height="10" style="stroke:#181818;stroke-width:0.5;" width="15" x="860.4307" y="150.5"/><rect fill="#98FB98" height="2" style="stroke:#181818;stroke-width:0.5;" width="4" x="858.4307" y="152.5"/><rect fill="#98FB98" height="2" style="stroke:#181818;stroke-width:0.5;" width="4" x="858.4307" y="156.5"/><text fill="#000000" font-family="sans-serif" font-size="14" lengthAdjust="spacing" textLength="94.9307" x="760.5" y="180.6074">app-http-server</text></g><!--entity appSocketClient--><g id="elem_appSocketClient"><rect fill="#D8BFD8" height="48.6211" rx="2.5" ry="2.5" style="stroke:#181818;stroke-width:0.5;" width="145.8271" x="564" y="145.5"/><rect fill="#D8BFD8" height="10" style="stroke:#181818;stroke-width:0.5;" width="15" x="689.8271" y="150.5"/><rect fill="#D8BFD8" height="2" style="stroke:#181818;stroke-width:0.5;" width="4" x="687.8271" y="152.5"/><rect fill="#D8BFD8" height="2" style="stroke:#181818;stroke-width:0.5;" width="4" x="687.8271" y="156.5"/><text fill="#000000" font-family="sans-serif" font-size="14" lengthAdjust="spacing" textLength="105.8271" x="579" y="180.6074">app-socket-client</text></g><!--entity appSocketServer--><g id="elem_appSocketServer"><rect fill="#D8BFD8" height="48.6211" rx="2.5" ry="2.5" style="stroke:#181818;stroke-width:0.5;" width="152.041" x="377" y="145.5"/><rect fill="#D8BFD8" height="10" style="stroke:#181818;stroke-width:0.5;" width="15" x="509.041" y="150.5"/><rect fill="#D8BFD8" height="2" style="stroke:#181818;stroke-width:0.5;" width="4" x="507.041" y="152.5"/><rect fill="#D8BFD8" height="2" style="stroke:#181818;stroke-width:0.5;" width="4" x="507.041" y="156.5"/><text fill="#000000" font-family="sans-serif" font-size="14" lengthAdjust="spacing" textLength="112.041" x="392" y="180.6074">app-socket-server</text></g><!--entity appStandalone--><g id="elem_appStandalone"><rect fill="#FFE4E1" height="48.6211" rx="2.5" ry="2.5" style="stroke:#181818;stroke-width:0.5;" width="136.5234" x="204.5" y="145.5"/><rect fill="#FFE4E1" height="10" style="stroke:#181818;stroke-width:0.5;" width="15" x="321.0234" y="150.5"/><rect fill="#FFE4E1" height="2" style="stroke:#181818;stroke-width:0.5;" width="4" x="319.0234" y="152.5"/><rect fill="#FFE4E1" height="2" style="stroke:#181818;stroke-width:0.5;" width="4" x="319.0234" y="156.5"/><text fill="#000000" font-family="sans-serif" font-size="14" lengthAdjust="spacing" textLength="96.5234" x="219.5" y="180.6074">app-standalone</text></g><!--entity domainCore--><g id="elem_domainCore"><rect fill="#F5DEB3" height="48.6211" rx="2.5" ry="2.5" style="stroke:#181818;stroke-width:0.5;" width="117.8135" x="456" y="383.5"/><rect fill="#F5DEB3" height="10" style="stroke:#181818;stroke-width:0.5;" width="15" x="553.8135" y="388.5"/><rect fill="#F5DEB3" height="2" style="stroke:#181818;stroke-width:0.5;" width="4" x="551.8135" y="390.5"/><rect fill="#F5DEB3" height="2" style="stroke:#181818;stroke-width:0.5;" width="4" x="551.8135" y="394.5"/><text fill="#000000" font-family="sans-serif" font-size="14" lengthAdjust="spacing" textLength="77.8135" x="471" y="418.6074">domain-core</text></g><!--entity inmemRepository--><g id="elem_inmemRepository"><rect fill="#FAFAD2" height="48.6211" rx="2.5" ry="2.5" style="stroke:#181818;stroke-width:0.5;" width="148.1377" x="7" y="511.5"/><rect fill="#FAFAD2" height="10" style="stroke:#181818;stroke-width:0.5;" width="15" x="135.1377" y="516.5"/><rect fill="#FAFAD2" height="2" style="stroke:#181818;stroke-width:0.5;" width="4" x="133.1377" y="518.5"/><rect fill="#FAFAD2" height="2" style="stroke:#181818;stroke-width:0.5;" width="4" x="133.1377" y="522.5"/><text fill="#000000" font-family="sans-serif" font-size="14" lengthAdjust="spacing" textLength="108.1377" x="22" y="546.6074">inmem-repository</text></g><!--entity jdbcRepository--><g id="elem_jdbcRepository"><rect fill="#FAFAD2" height="48.6211" rx="2.5" ry="2.5" style="stroke:#181818;stroke-width:0.5;" width="131.8135" x="288" y="511.5"/><rect fill="#FAFAD2" height="10" style="stroke:#181818;stroke-width:0.5;" width="15" x="399.8135" y="516.5"/><rect fill="#FAFAD2" height="2" style="stroke:#181818;stroke-width:0.5;" width="4" x="397.8135" y="518.5"/><rect fill="#FAFAD2" height="2" style="stroke:#181818;stroke-width:0.5;" width="4" x="397.8135" y="522.5"/><text fill="#000000" font-family="sans-serif" font-size="14" lengthAdjust="spacing" textLength="91.8135" x="303" y="546.6074">jdbc-repository</text></g><!--entity transportModel--><g id="elem_transportModel"><rect fill="#F0E68C" height="48.6211" rx="2.5" ry="2.5" style="stroke:#181818;stroke-width:0.5;" width="138.041" x="743" y="255.5"/><rect fill="#F0E68C" height="10" style="stroke:#181818;stroke-width:0.5;" width="15" x="861.041" y="260.5"/><rect fill="#F0E68C" height="2" style="stroke:#181818;stroke-width:0.5;" width="4" x="859.041" y="262.5"/><rect fill="#F0E68C" height="2" style="stroke:#181818;stroke-width:0.5;" width="4" x="859.041" y="266.5"/><text fill="#000000" font-family="sans-serif" font-size="14" lengthAdjust="spacing" textLength="98.041" x="758" y="290.6074">transport-model</text></g><!--entity cli--><g id="elem_cli"><rect fill="#FFA07A" height="48.6211" rx="2.5" ry="2.5" style="stroke:#181818;stroke-width:0.5;" width="53.2207" x="426.5" y="255.5"/><rect fill="#FFA07A" height="10" style="stroke:#181818;stroke-width:0.5;" width="15" x="459.7207" y="260.5"/><rect fill="#FFA07A" height="2" style="stroke:#181818;stroke-width:0.5;" width="4" x="457.7207" y="262.5"/><rect fill="#FFA07A" height="2" style="stroke:#181818;stroke-width:0.5;" width="4" x="457.7207" y="266.5"/><text fill="#000000" font-family="sans-serif" font-size="14" lengthAdjust="spacing" textLength="13.2207" x="441.5" y="290.6074">cli</text></g><!--link user to appStandalone--><g id="link_user_appStandalone"><path d="M623.18,50.67 C577.59,66.07 435.6242,114.0491 347.2642,143.9091 " fill="none" id="user-to-appStandalone" style="stroke:#181818;stroke-width:1.0;"/><polygon fill="#181818" points="341.58,145.83,351.3869,146.7381,346.3168,144.2293,348.8257,139.1592,341.58,145.83" style="stroke:#181818;stroke-width:1.0;"/></g><!--link user to appHttpClient--><g id="link_user_appHttpClient"><path d="M650.87,50.97 C694.74,66.7 826.7821,114.0549 909.5321,143.7249 " fill="none" id="user-to-appHttpClient" style="stroke:#181818;stroke-width:1.0;"/><polygon fill="#181818" points="915.18,145.75,908.0581,138.9471,910.4734,144.0624,905.3581,146.4777,915.18,145.75" style="stroke:#181818;stroke-width:1.0;"/></g><!--link user to appSocketClient--><g id="link_user_appSocketClient"><path d="M637,84.58 C637,104.45 637,122.04 637,139.23 " fill="none" id="user-to-appSocketClient" style="stroke:#181818;stroke-width:1.0;"/><polygon fill="#181818" points="637,145.23,641,136.23,637,140.23,633,136.23,637,145.23" style="stroke:#181818;stroke-width:1.0;"/></g><!--link appStandalone to appSocketServer--><!--link appSocketServer to appSocketClient--><!--link appSocketClient to appHttpServer--><!--link appHttpServer to appHttpClient--><!--reverse link appStandalone to cli--><g id="link_appStandalone_cli"><path d="M317.6451,197.7868 C352.2151,218.5268 396.32,244.99 426.4,263.04 " fill="none" id="appStandalone-backto-cli" style="stroke:#181818;stroke-width:1.0;"/><polygon fill="#181818" points="312.5,194.7,318.1598,202.7602,316.7876,197.2723,322.2755,195.9001,312.5,194.7" style="stroke:#181818;stroke-width:1.0;"/></g><!--reverse link appStandalone to appCtxInfra--><g id="link_appStandalone_appCtxInfra"><path d="M251.134,199.4575 C237.294,217.4675 222,237.36 208.17,255.35 " fill="none" id="appStandalone-backto-appCtxInfra" style="stroke:#181818;stroke-width:1.0;"/><polygon fill="#181818" points="254.79,194.7,246.1344,199.399,251.7434,198.6646,252.4777,204.2736,254.79,194.7" style="stroke:#181818;stroke-width:1.0;"/></g><!--reverse link appStandalone to domainCore--><g id="link_appStandalone_domainCore"><path d="M290.863,199.7945 C314.753,237.1445 362.01,305.28 419,353.5 C432.55,364.96 448.92,375.16 464.28,383.49 " fill="none" id="appStandalone-backto-domainCore" style="stroke:#181818;stroke-width:1.0;"/><polygon fill="#181818" points="287.63,194.74,289.1098,204.4771,290.3241,198.9521,295.8491,200.1664,287.63,194.74" style="stroke:#181818;stroke-width:1.0;"/></g><!--reverse link appSocketServer to appCtxInfra--><g id="link_appSocketServer_appCtxInfra"><path d="M390.0597,196.8492 C346.0797,214.9092 291.22,237.43 247.27,255.48 " fill="none" id="appSocketServer-backto-appCtxInfra" style="stroke:#181818;stroke-width:1.0;"/><polygon fill="#181818" points="395.61,194.57,385.7652,194.2886,390.9848,196.4693,388.8041,201.6889,395.61,194.57" style="stroke:#181818;stroke-width:1.0;"/></g><!--reverse link appSocketServer to domainCore--><g id="link_appSocketServer_domainCore"><path d="M431.6041,199.547 C413.2941,226.567 393.09,266.98 409,304.5 C423.04,337.61 453.6,365.25 478.31,383.45 " fill="none" id="appSocketServer-backto-domainCore" style="stroke:#181818;stroke-width:1.0;"/><polygon fill="#181818" points="434.97,194.58,426.6099,199.7866,432.1651,198.7192,433.2325,204.2744,434.97,194.58" style="stroke:#181818;stroke-width:1.0;"/></g><!--reverse link appSocketServer to transportModel--><g id="link_appSocketServer_transportModel"><path d="M534.8757,195.6283 C598.1757,214.6683 681.72,239.81 742.96,258.23 " fill="none" id="appSocketServer-backto-transportModel" style="stroke:#181818;stroke-width:1.0;"/><polygon fill="#181818" points="529.13,193.9,536.5964,200.3228,533.9181,195.3402,538.9007,192.6619,529.13,193.9" style="stroke:#181818;stroke-width:1.0;"/></g><!--reverse link appSocketClient to cli--><g id="link_appSocketClient_cli"><path d="M575.7235,197.0871 C557.0935,205.6971 541.97,213.52 524,224.5 C508.62,233.9 492.6,245.97 479.68,256.36 " fill="none" id="appSocketClient-backto-cli" style="stroke:#181818;stroke-width:1.0;"/><polygon fill="#181818" points="581.17,194.57,571.3222,194.7147,576.6313,196.6676,574.6784,201.9767,581.17,194.57" style="stroke:#181818;stroke-width:1.0;"/></g><!--reverse link appSocketClient to transportModel--><g id="link_appSocketClient_transportModel"><path d="M680.5058,197.8513 C709.6858,215.8613 744.53,237.36 773.69,255.35 " fill="none" id="appSocketClient-backto-transportModel" style="stroke:#181818;stroke-width:1.0;"/><polygon fill="#181818" points="675.4,194.7,680.9578,202.8308,679.6548,197.3261,685.1596,196.0231,675.4,194.7" style="stroke:#181818;stroke-width:1.0;"/></g><!--reverse link appSocketClient to domainCore--><g id="link_appSocketClient_domainCore"><path d="M646.7538,200.3018 C654.8238,228.0818 662.12,269.19 645,304.5 C628.07,339.41 592.84,366.01 563.33,383.35 " fill="none" id="appSocketClient-backto-domainCore" style="stroke:#181818;stroke-width:1.0;"/><polygon fill="#181818" points="645.08,194.54,643.7495,204.2986,646.4748,199.3415,651.4319,202.0669,645.08,194.54" style="stroke:#181818;stroke-width:1.0;"/></g><!--link appSocketClient to domainCore--><g id="link_appSocketClient_domainCore"><path d="M604.72,194.58 C586.01,209.91 563.55,231.47 550,255.5 C526.79,296.65 520.4815,334.4044 517.8415,365.5244 " fill="none" id="appSocketClient-to-domainCore" style="stroke:#181818;stroke-width:1.0;stroke-dasharray:7.0,7.0;"/><polygon fill="none" points="516.32,383.46,523.8201,366.0316,511.863,365.0172,516.32,383.46" style="stroke:#181818;stroke-width:1.0;"/><text fill="#000000" font-family="sans-serif" font-size="13" lengthAdjust="spacing" textLength="85.979" x="551" y="285.5283">implement part</text></g><!--reverse link appHttpServer to appCtxInfra--><g id="link_appHttpServer_appCtxInfra"><path d="M739.6074,191.8782 C733.7374,193.3382 733.69,193.27 728,194.5 C555.64,231.73 348.88,259.56 249.32,271.93 " fill="none" id="appHttpServer-backto-appCtxInfra" style="stroke:#181818;stroke-width:1.0;"/><polygon fill="#181818" points="745.43,190.43,735.7306,188.7206,740.5778,191.6368,737.6616,196.4841,745.43,190.43" style="stroke:#181818;stroke-width:1.0;"/></g><!--reverse link appHttpServer to domainCore--><g id="link_appHttpServer_domainCore"><path d="M851.2255,198.4478 C884.2055,224.8278 921.86,265.17 899,304.5 C866.32,360.73 673.57,389.72 574.2,401.11 " fill="none" id="appHttpServer-backto-domainCore" style="stroke:#181818;stroke-width:1.0;"/><polygon fill="#181818" points="846.54,194.7,851.0697,203.4454,850.4446,197.8232,856.0668,197.1981,846.54,194.7" style="stroke:#181818;stroke-width:1.0;"/></g><!--reverse link appHttpServer to transportModel--><g id="link_appHttpServer_transportModel"><path d="M812.7234,200.6997 C812.5534,218.7097 812.39,237.36 812.22,255.35 " fill="none" id="appHttpServer-backto-transportModel" style="stroke:#181818;stroke-width:1.0;"/><polygon fill="#181818" points="812.78,194.7,808.6952,203.6618,812.7328,199.6998,816.6949,203.7374,812.78,194.7" style="stroke:#181818;stroke-width:1.0;"/></g><!--reverse link appHttpClient to cli--><g id="link_appHttpClient_cli"><path d="M909.4799,191.8475 C903.6599,193.3475 903.64,193.26 898,194.5 C726.24,232.36 675.9,206.45 507,255.5 C497.87,258.15 488.25,261.98 479.69,265.78 " fill="none" id="appHttpClient-backto-cli" style="stroke:#181818;stroke-width:1.0;"/><polygon fill="#181818" points="915.29,190.35,905.5765,188.7228,910.4482,191.5979,907.5731,196.4696,915.29,190.35" style="stroke:#181818;stroke-width:1.0;"/></g><!--reverse link appHttpClient to transportModel--><g id="link_appHttpClient_transportModel"><path d="M938.0832,197.945 C910.0732,215.955 876.77,237.36 848.78,255.35 " fill="none" id="appHttpClient-backto-transportModel" style="stroke:#181818;stroke-width:1.0;"/><polygon fill="#181818" points="943.13,194.7,933.3965,196.203,938.9244,197.4042,937.7232,202.932,943.13,194.7" style="stroke:#181818;stroke-width:1.0;"/></g><!--reverse link appHttpClient to domainCore--><g id="link_appHttpClient_domainCore"><path d="M1050.0411,196.7637 C1077.4911,210.1737 1101.34,227.44 1117,255.5 C1142.96,302.01 1097.88,334.8 1048,353.5 C962.45,385.58 694.2,399.93 574.13,404.87 " fill="none" id="appHttpClient-backto-domainCore" style="stroke:#181818;stroke-width:1.0;"/><polygon fill="#181818" points="1044.65,194.13,1050.9808,201.6746,1049.1426,196.3247,1054.4924,194.4865,1044.65,194.13" style="stroke:#181818;stroke-width:1.0;"/></g><!--link appHttpClient to domainCore--><g id="link_appHttpClient_domainCore"><path d="M974.8,194.53 C967.73,222.72 953.01,270.4 928,304.5 C907.44,332.54 898.84,339.52 867,353.5 C770.5,395.88 664.3949,405.1109 592.2649,406.8309 " fill="none" id="appHttpClient-to-domainCore" style="stroke:#181818;stroke-width:1.0;stroke-dasharray:7.0,7.0;"/><polygon fill="none" points="574.27,407.26,592.4079,412.8292,592.1219,400.8326,574.27,407.26" style="stroke:#181818;stroke-width:1.0;"/><text fill="#000000" font-family="sans-serif" font-size="13" lengthAdjust="spacing" textLength="85.979" x="955" y="285.5283">implement part</text></g><!--reverse link appCtxInfra to inmemRepository--><g id="link_appCtxInfra_inmemRepository"><path d="M177.3835,310.4136 C156.5535,358.9436 111.89,463.03 91.15,511.35 " fill="none" id="appCtxInfra-backto-inmemRepository" style="stroke:#181818;stroke-width:1.0;"/><polygon fill="#181818" points="179.75,304.9,172.5245,311.5927,177.7779,309.4946,179.8759,314.7481,179.75,304.9" style="stroke:#181818;stroke-width:1.0;"/></g><!--reverse link appCtxInfra to jdbcRepository--><g id="link_appCtxInfra_jdbcRepository"><path d="M208.685,309.9403 C240.025,358.4703 307.53,463.03 338.73,511.35 " fill="none" id="appCtxInfra-backto-jdbcRepository" style="stroke:#181818;stroke-width:1.0;"/><polygon fill="#181818" points="205.43,304.9,206.9522,314.6305,208.1425,309.1003,213.6727,310.2905,205.43,304.9" style="stroke:#181818;stroke-width:1.0;"/></g><!--link appCtxInfra to domainCore--><g id="link_appCtxInfra_domainCore"><path d="M214.04,304.58 C231.73,320.65 257.12,341.18 283,353.5 C338.42,379.89 407.61,393.67 455.95,400.58 " fill="none" id="appCtxInfra-domainCore" style="stroke:#181818;stroke-width:1.0;"/></g><!--reverse link domainCore to inmemRepository--><g id="link_domainCore_inmemRepository"><path d="M438.6178,430.8831 C402.0478,441.3731 371.44,450.19 329,462.5 C270.52,479.46 204.32,498.82 155.04,513.26 " fill="none" id="domainCore-backto-inmemRepository" style="stroke:#181818;stroke-width:1.0;stroke-dasharray:7.0,7.0;"/><polygon fill="none" points="455.92,425.92,436.9634,425.1157,440.2721,436.6505,455.92,425.92" style="stroke:#181818;stroke-width:1.0;"/><text fill="#000000" font-family="sans-serif" font-size="13" lengthAdjust="spacing" textLength="85.979" x="330" y="477.5283">implement part</text></g><!--reverse link domainCore to jdbcRepository--><g id="link_domainCore_jdbcRepository"><path d="M470.5446,443.7932 C441.7546,466.3232 412.89,488.92 384.15,511.41 " fill="none" id="domainCore-backto-jdbcRepository" style="stroke:#181818;stroke-width:1.0;stroke-dasharray:7.0,7.0;"/><polygon fill="none" points="484.72,432.7,466.8469,439.068,474.2423,448.5183,484.72,432.7" style="stroke:#181818;stroke-width:1.0;"/><text fill="#000000" font-family="sans-serif" font-size="13" lengthAdjust="spacing" textLength="85.979" x="445" y="477.5283">implement part</text></g><!--link transportModel to domainCore--><g id="link_transportModel_domainCore"><path d="M786.53,304.62 C768.16,320.5 742.1,340.78 716,353.5 C670.88,375.49 615.5,389.37 574.3,397.47 " fill="none" id="transportModel-domainCore" style="stroke:#181818;stroke-width:1.0;"/><text fill="#000000" font-family="sans-serif" font-size="13" lengthAdjust="spacing" textLength="56.3672" x="748" y="349.5283">mappings</text></g><!--reverse link cli to domainCore--><g id="link_cli_domainCore"><path d="M467.3098,310.0832 C478.3998,332.6132 492.32,360.92 503.39,383.41 " fill="none" id="cli-backto-domainCore" style="stroke:#181818;stroke-width:1.0;"/><polygon fill="#181818" points="464.66,304.7,465.0459,314.5413,466.8681,309.186,472.2235,311.0083,464.66,304.7" style="stroke:#181818;stroke-width:1.0;"/></g><!--SRC=[bLHDQnin4BthLuZi8Ur1FlGOGWvr8Irj8DY1KaeFocgILQql93cE8J- -qjfUIrgfaDEYf_TcHZDlnssuCjHIYNijZLQW_Dhl1U2j59yGehtN5cyTM8GkyHTuuWhEJ8Ttt0_XBBHrQ8Bn1JM6zFwLSFLawGMc3WTawL-_nJFkVl3dmNyMMoWrW_T1A7W0Jggl0LgE2ExkgO1R2w2gkb3a2zXKjnwH_-YSxZVWYuph4JpbV1Yuym8QoZpdGNdAsb9wgXWL0Pba4uAxkw3PhxJBP4nBoXNfjJre3kTbEEBkvm3KfsIk94XYmMZ7m_3ses84LnDs7C6j5WpKIhDV88JUfL7-iiU-31AnzyJmbYfdjFL4QWPYZ35XTn72tVU1RdWg2hCOYU5xpB2cGcgL-C-2e9vhvGPk7Fx0m80ADVGSt4U4ebanONgdo4tUtTdLsLjpLM82bC-8_1uu2_d-s5WTAGUFIYCq-Kdqr78L_jdCABTsWtkCN1H-VNXVR6tZ9lbB6uopzT3ieQqeDKuIfqN9hO9cVIgVKxihOhHejMgEb4LaBDvkqf_k2dDf1CXu7vPdQ7GnbaOdAemySuLGwKAo4eiUL6xc7QYGvbMyw_NfSZ-5B3PEbPClb8nIiLjImlNROb5cc9LLylDiyrSKgobDVeLbA8whPuTGN4oLllq3]--></g></svg>